<svg width="224" height="224" viewBox="0 0 224 224" fill="none" xmlns="http://www.w3.org/2000/svg">
<g clip-path="url(#clip0_3_7026)">
<path d="M124.124 29.3809L204.708 168.952C205.936 171.08 206.583 173.494 206.583 175.951C206.583 178.409 205.936 180.823 204.708 182.951C203.479 185.08 201.712 186.847 199.584 188.076C197.455 189.305 195.041 189.951 192.584 189.952H31.4157C28.9582 189.951 26.544 189.305 24.4158 188.076C22.2876 186.847 20.5203 185.08 19.2916 182.951C18.0629 180.823 17.416 178.409 17.416 175.951C17.416 173.494 18.0629 171.08 19.2917 168.952L99.8757 29.3809C105.261 20.0475 118.729 20.0475 124.124 29.3809ZM112 140C109.524 140 107.15 140.983 105.4 142.733C103.65 144.484 102.666 146.858 102.666 149.333C102.666 151.808 103.65 154.182 105.4 155.933C107.15 157.683 109.524 158.666 112 158.666C114.475 158.666 116.849 157.683 118.599 155.933C120.35 154.182 121.333 151.808 121.333 149.333C121.333 146.858 120.35 144.484 118.599 142.733C116.849 140.983 114.475 140 112 140ZM112 74.6662C109.714 74.6665 107.507 75.5058 105.799 77.0249C104.091 78.544 102.999 80.6372 102.732 82.9075L102.666 83.9995V121.333C102.669 123.712 103.58 126 105.213 127.73C106.846 129.459 109.078 130.5 111.453 130.64C113.827 130.779 116.166 130.007 117.99 128.48C119.814 126.953 120.987 124.787 121.268 122.425L121.333 121.333V83.9995C121.333 81.5242 120.35 79.1502 118.599 77.3999C116.849 75.6495 114.475 74.6662 112 74.6662Z" fill="#FF495C"/>
</g>
<defs>
<clipPath id="clip0_3_7026">
<rect width="224" height="224" fill="white"/>
</clipPath>
</defs>
</svg>
