<svg width="183" height="183" viewBox="0 0 183 183" fill="none" xmlns="http://www.w3.org/2000/svg">
<g filter="url(#filter0_d_3_7018)">
<path d="M91.5 0C114.706 0 136.962 9.21872 153.372 25.6282C169.781 42.0376 179 64.2936 179 87.5C179 110.706 169.781 132.962 153.372 149.372C136.962 165.781 114.706 175 91.5 175C68.2936 175 46.0376 165.781 29.6282 149.372C13.2187 132.962 4 110.706 4 87.5C4 64.2936 13.2187 42.0376 29.6282 25.6282C46.0376 9.21872 68.2936 0 91.5 0ZM80.6 104.762L61.1625 85.3125C60.4657 84.6157 59.6384 84.0629 58.728 83.6858C57.8175 83.3087 56.8417 83.1146 55.8563 83.1146C54.8708 83.1146 53.895 83.3087 52.9845 83.6858C52.0741 84.0629 51.2468 84.6157 50.55 85.3125C49.1427 86.7198 48.3521 88.6285 48.3521 90.6188C48.3521 92.609 49.1427 94.5177 50.55 95.925L75.3 120.675C75.9949 121.375 76.8215 121.931 77.7322 122.31C78.6429 122.69 79.6197 122.885 80.6062 122.885C81.5928 122.885 82.5696 122.69 83.4803 122.31C84.391 121.931 85.2176 121.375 85.9125 120.675L137.163 69.4125C137.869 68.7186 138.43 67.8917 138.815 66.9796C139.2 66.0674 139.401 65.0881 139.406 64.0981C139.41 63.108 139.219 62.1269 138.842 61.2112C138.466 60.2956 137.912 59.4635 137.212 58.763C136.512 58.0625 135.681 57.5075 134.766 57.13C133.851 56.7524 132.87 56.5598 131.88 56.5632C130.89 56.5667 129.91 56.7661 128.997 57.15C128.085 57.5339 127.257 58.0947 126.562 58.8L80.6 104.762Z" fill="#5BD794"/>
</g>
<defs>
<filter id="filter0_d_3_7018" x="0" y="0" width="183" height="183" filterUnits="userSpaceOnUse" color-interpolation-filters="sRGB">
<feFlood flood-opacity="0" result="BackgroundImageFix"/>
<feColorMatrix in="SourceAlpha" type="matrix" values="0 0 0 0 0 0 0 0 0 0 0 0 0 0 0 0 0 0 127 0" result="hardAlpha"/>
<feOffset dy="4"/>
<feGaussianBlur stdDeviation="2"/>
<feComposite in2="hardAlpha" operator="out"/>
<feColorMatrix type="matrix" values="0 0 0 0 0 0 0 0 0 0 0 0 0 0 0 0 0 0 0.25 0"/>
<feBlend mode="normal" in2="BackgroundImageFix" result="effect1_dropShadow_3_7018"/>
<feBlend mode="normal" in="SourceGraphic" in2="effect1_dropShadow_3_7018" result="shape"/>
</filter>
</defs>
</svg>
