<svg width="80" height="68" viewBox="0 0 80 68" fill="none" xmlns="http://www.w3.org/2000/svg">
<path d="M73.8462 0H6.15385C4.52174 0 2.95649 0.64835 1.80242 1.80242C0.64835 2.95649 0 4.52174 0 6.15385V61.5385C0 63.1706 0.64835 64.7358 1.80242 65.8899C2.95649 67.044 4.52174 67.6923 6.15385 67.6923H11.3038C11.8862 67.6925 12.4566 67.5274 12.9489 67.2163C13.4411 66.9052 13.8349 66.4607 14.0846 65.9346C15.5808 62.7757 17.9431 60.1064 20.8967 58.2372C23.8503 56.368 27.2739 55.3757 30.7692 55.3757C34.2646 55.3757 37.6882 56.368 40.6418 58.2372C43.5953 60.1064 45.9576 62.7757 47.4538 65.9346C47.7035 66.4607 48.0974 66.9052 48.5896 67.2163C49.0819 67.5274 49.6523 67.6925 50.2346 67.6923H73.8462C75.4783 67.6923 77.0435 67.044 78.1976 65.8899C79.3517 64.7358 80 63.1706 80 61.5385V6.15385C80 4.52174 79.3517 2.95649 78.1976 1.80242C77.0435 0.64835 75.4783 0 73.8462 0ZM21.5385 40C21.5385 38.1743 22.0798 36.3897 23.0941 34.8717C24.1084 33.3537 25.5501 32.1705 27.2368 31.4719C28.9235 30.7732 30.7795 30.5904 32.5701 30.9466C34.3607 31.3028 36.0054 32.1819 37.2964 33.4729C38.5873 34.7638 39.4665 36.4086 39.8226 38.1992C40.1788 39.9898 39.996 41.8458 39.2974 43.5325C38.5987 45.2192 37.4156 46.6608 35.8976 47.6751C34.3796 48.6894 32.5949 49.2308 30.7692 49.2308C28.3211 49.2308 25.9732 48.2582 24.2421 46.5271C22.511 44.796 21.5385 42.4482 21.5385 40ZM73.8462 61.5385H52.0885C49.519 57.1209 45.6458 53.6063 41 51.4769C43.3292 49.403 44.9731 46.6701 45.7137 43.6407C46.4544 40.6112 46.2568 37.4282 45.1472 34.5135C44.0377 31.5989 42.0685 29.0903 39.5007 27.3203C36.933 25.5502 33.8879 24.6024 30.7692 24.6024C27.6505 24.6024 24.6055 25.5502 22.0377 27.3203C19.47 29.0903 17.5008 31.5989 16.3912 34.5135C15.2817 37.4282 15.0841 40.6112 15.8248 43.6407C16.5654 46.6701 18.2093 49.403 20.5385 51.4769C15.8927 53.6063 12.0195 57.1209 9.45 61.5385H6.15385V6.15385H73.8462V61.5385ZM12.3077 21.5385V15.3846C12.3077 14.5686 12.6319 13.7859 13.2089 13.2089C13.7859 12.6319 14.5686 12.3077 15.3846 12.3077H64.6154C65.4314 12.3077 66.2141 12.6319 66.7911 13.2089C67.3681 13.7859 67.6923 14.5686 67.6923 15.3846V52.3077C67.6923 53.1237 67.3681 53.9064 66.7911 54.4834C66.2141 55.0604 65.4314 55.3846 64.6154 55.3846H58.4615C57.6455 55.3846 56.8629 55.0604 56.2858 54.4834C55.7088 53.9064 55.3846 53.1237 55.3846 52.3077C55.3846 51.4916 55.7088 50.709 56.2858 50.132C56.8629 49.5549 57.6455 49.2308 58.4615 49.2308H61.5385V18.4615H18.4615V21.5385C18.4615 22.3545 18.1374 23.1371 17.5603 23.7142C16.9833 24.2912 16.2007 24.6154 15.3846 24.6154C14.5686 24.6154 13.7859 24.2912 13.2089 23.7142C12.6319 23.1371 12.3077 22.3545 12.3077 21.5385Z" fill="#A4A4A4"/>
</svg>
