<svg width="11" height="12" viewBox="0 0 11 12" fill="none" xmlns="http://www.w3.org/2000/svg">
<path d="M3.7216 10.555C3.43717 10.8396 3.05139 10.9997 2.64903 11H0.5V8.86444C0.5 8.46222 0.659969 8.07611 0.944359 7.79166M3.7216 10.555L0.944359 7.79166M3.7216 10.555L9.26165 5.01165M0.944359 7.79166L6.48996 2.23887M9.26165 5.01165L10.0554 4.21832C10.3401 3.93357 10.5 3.54738 10.5 3.1447C10.5 2.74202 10.3401 2.35583 10.0554 2.07109L9.42995 1.44498C9.28893 1.30386 9.12149 1.19193 8.93719 1.11557C8.75289 1.03922 8.55536 0.999948 8.35588 1C8.1564 1.00005 7.95888 1.03943 7.77462 1.11587C7.59037 1.19232 7.42298 1.30434 7.28203 1.44553L6.48996 2.23887M9.26165 5.01165L6.48996 2.23887" stroke="#A4A4A4" stroke-linecap="round" stroke-linejoin="round"/>
</svg>
