<svg width="48" height="49" viewBox="0 0 48 49" fill="none" xmlns="http://www.w3.org/2000/svg">
<circle cx="35.5" cy="36.5" r="12.5" fill="#CEEEFD"/>
<path d="M6.25 8.125C7.28553 8.125 8.125 7.28553 8.125 6.25C8.125 5.21447 7.28553 4.375 6.25 4.375C5.21447 4.375 4.375 5.21447 4.375 6.25C4.375 7.28553 5.21447 8.125 6.25 8.125Z" fill="#72BAF3" fill-opacity="0.5" stroke="#72BAF3" stroke-width="1.25" stroke-linecap="round"/>
<path d="M15 8.125C16.0355 8.125 16.875 7.28553 16.875 6.25C16.875 5.21447 16.0355 4.375 15 4.375C13.9645 4.375 13.125 5.21447 13.125 6.25C13.125 7.28553 13.9645 8.125 15 8.125Z" fill="#72BAF3" fill-opacity="0.5" stroke="#72BAF3" stroke-width="1.25" stroke-linecap="round"/>
<path d="M23.75 8.125C24.7855 8.125 25.625 7.28553 25.625 6.25C25.625 5.21447 24.7855 4.375 23.75 4.375C22.7145 4.375 21.875 5.21447 21.875 6.25C21.875 7.28553 22.7145 8.125 23.75 8.125Z" fill="#72BAF3" fill-opacity="0.5" stroke="#72BAF3" stroke-width="1.25" stroke-linecap="round"/>
<path d="M6.25 16.875C7.28553 16.875 8.125 16.0355 8.125 15C8.125 13.9645 7.28553 13.125 6.25 13.125C5.21447 13.125 4.375 13.9645 4.375 15C4.375 16.0355 5.21447 16.875 6.25 16.875Z" fill="#72BAF3" fill-opacity="0.5" stroke="#72BAF3" stroke-width="1.25" stroke-linecap="round"/>
<path d="M15 16.875C16.0355 16.875 16.875 16.0355 16.875 15C16.875 13.9645 16.0355 13.125 15 13.125C13.9645 13.125 13.125 13.9645 13.125 15C13.125 16.0355 13.9645 16.875 15 16.875Z" fill="#72BAF3" fill-opacity="0.5" stroke="#72BAF3" stroke-width="1.25" stroke-linecap="round"/>
<path d="M23.75 16.875C24.7855 16.875 25.625 16.0355 25.625 15C25.625 13.9645 24.7855 13.125 23.75 13.125C22.7145 13.125 21.875 13.9645 21.875 15C21.875 16.0355 22.7145 16.875 23.75 16.875Z" fill="#72BAF3" fill-opacity="0.5" stroke="#72BAF3" stroke-width="1.25" stroke-linecap="round"/>
<path d="M6.25 25.625C7.28553 25.625 8.125 24.7855 8.125 23.75C8.125 22.7145 7.28553 21.875 6.25 21.875C5.21447 21.875 4.375 22.7145 4.375 23.75C4.375 24.7855 5.21447 25.625 6.25 25.625Z" fill="#72BAF3" fill-opacity="0.5" stroke="#72BAF3" stroke-width="1.25" stroke-linecap="round"/>
<path d="M15 25.625C16.0355 25.625 16.875 24.7855 16.875 23.75C16.875 22.7145 16.0355 21.875 15 21.875C13.9645 21.875 13.125 22.7145 13.125 23.75C13.125 24.7855 13.9645 25.625 15 25.625Z" fill="#72BAF3" fill-opacity="0.5" stroke="#72BAF3" stroke-width="1.25" stroke-linecap="round"/>
<path d="M23.75 25.625C24.7855 25.625 25.625 24.7855 25.625 23.75C25.625 22.7145 24.7855 21.875 23.75 21.875C22.7145 21.875 21.875 22.7145 21.875 23.75C21.875 24.7855 22.7145 25.625 23.75 25.625Z" fill="#72BAF3" fill-opacity="0.5" stroke="#72BAF3" stroke-width="1.25" stroke-linecap="round"/>
<path d="M24 37.25C21.125 37.25 18.62 36.2971 16.485 34.3912C14.35 32.4854 13.1258 30.105 12.8125 27.25H15.375C15.6667 29.4167 16.6304 31.2083 18.2663 32.625C19.9021 34.0417 21.8133 34.75 24 34.75C26.4375 34.75 28.5054 33.9012 30.2037 32.2037C31.9021 30.5062 32.7508 28.4383 32.75 26C32.75 23.5625 31.9012 21.495 30.2037 19.7975C28.5062 18.1 26.4383 17.2508 24 17.25C22.5625 17.25 21.2188 17.5833 19.9687 18.25C18.7187 18.9167 17.6667 19.8333 16.8125 21H20.25V23.5H12.75V16H15.25V18.9375C16.3125 17.6042 17.6096 16.5729 19.1412 15.8438C20.6729 15.1146 22.2925 14.75 24 14.75C25.5625 14.75 27.0262 15.0471 28.3912 15.6413C29.7562 16.2354 30.9438 17.0371 31.9538 18.0463C32.9638 19.0571 33.7658 20.2446 34.36 21.6088C34.9542 22.9729 35.2508 24.4367 35.25 26C35.25 27.5625 34.9533 29.0262 34.36 30.3912C33.7667 31.7562 32.9646 32.9438 31.9538 33.9538C30.9429 34.9638 29.7554 35.7658 28.3912 36.36C27.0271 36.9542 25.5633 37.2508 24 37.25ZM27.5 31.25L22.75 26.5V19.75H25.25V25.5L29.25 29.5L27.5 31.25Z" fill="#01305D"/>
</svg>
