<svg width="47" height="49" viewBox="0 0 47 49" fill="none" xmlns="http://www.w3.org/2000/svg">
<circle cx="34.5" cy="36.5" r="12.5" fill="#CEEEFD"/>
<path d="M6.25 8.125C7.28553 8.125 8.125 7.28553 8.125 6.25C8.125 5.21447 7.28553 4.375 6.25 4.375C5.21447 4.375 4.375 5.21447 4.375 6.25C4.375 7.28553 5.21447 8.125 6.25 8.125Z" fill="#72BAF3" fill-opacity="0.5" stroke="#72BAF3" stroke-width="1.25" stroke-linecap="round"/>
<path d="M15 8.125C16.0355 8.125 16.875 7.28553 16.875 6.25C16.875 5.21447 16.0355 4.375 15 4.375C13.9645 4.375 13.125 5.21447 13.125 6.25C13.125 7.28553 13.9645 8.125 15 8.125Z" fill="#72BAF3" fill-opacity="0.5" stroke="#72BAF3" stroke-width="1.25" stroke-linecap="round"/>
<path d="M23.75 8.125C24.7855 8.125 25.625 7.28553 25.625 6.25C25.625 5.21447 24.7855 4.375 23.75 4.375C22.7145 4.375 21.875 5.21447 21.875 6.25C21.875 7.28553 22.7145 8.125 23.75 8.125Z" fill="#72BAF3" fill-opacity="0.5" stroke="#72BAF3" stroke-width="1.25" stroke-linecap="round"/>
<path d="M6.25 16.875C7.28553 16.875 8.125 16.0355 8.125 15C8.125 13.9645 7.28553 13.125 6.25 13.125C5.21447 13.125 4.375 13.9645 4.375 15C4.375 16.0355 5.21447 16.875 6.25 16.875Z" fill="#72BAF3" fill-opacity="0.5" stroke="#72BAF3" stroke-width="1.25" stroke-linecap="round"/>
<path d="M15 16.875C16.0355 16.875 16.875 16.0355 16.875 15C16.875 13.9645 16.0355 13.125 15 13.125C13.9645 13.125 13.125 13.9645 13.125 15C13.125 16.0355 13.9645 16.875 15 16.875Z" fill="#72BAF3" fill-opacity="0.5" stroke="#72BAF3" stroke-width="1.25" stroke-linecap="round"/>
<path d="M23.75 16.875C24.7855 16.875 25.625 16.0355 25.625 15C25.625 13.9645 24.7855 13.125 23.75 13.125C22.7145 13.125 21.875 13.9645 21.875 15C21.875 16.0355 22.7145 16.875 23.75 16.875Z" fill="#72BAF3" fill-opacity="0.5" stroke="#72BAF3" stroke-width="1.25" stroke-linecap="round"/>
<path d="M6.25 25.625C7.28553 25.625 8.125 24.7855 8.125 23.75C8.125 22.7145 7.28553 21.875 6.25 21.875C5.21447 21.875 4.375 22.7145 4.375 23.75C4.375 24.7855 5.21447 25.625 6.25 25.625Z" fill="#72BAF3" fill-opacity="0.5" stroke="#72BAF3" stroke-width="1.25" stroke-linecap="round"/>
<path d="M15 25.625C16.0355 25.625 16.875 24.7855 16.875 23.75C16.875 22.7145 16.0355 21.875 15 21.875C13.9645 21.875 13.125 22.7145 13.125 23.75C13.125 24.7855 13.9645 25.625 15 25.625Z" fill="#72BAF3" fill-opacity="0.5" stroke="#72BAF3" stroke-width="1.25" stroke-linecap="round"/>
<path d="M23.75 25.625C24.7855 25.625 25.625 24.7855 25.625 23.75C25.625 22.7145 24.7855 21.875 23.75 21.875C22.7145 21.875 21.875 22.7145 21.875 23.75C21.875 24.7855 22.7145 25.625 23.75 25.625Z" fill="#72BAF3" fill-opacity="0.5" stroke="#72BAF3" stroke-width="1.25" stroke-linecap="round"/>
<path d="M24 16C18.4762 16 14 20.4775 14 26C14 31.5225 18.4762 36 24 36C29.5238 36 34 31.5225 34 26C34 20.4775 29.5238 16 24 16ZM28.6337 28.8663C28.8681 29.1006 28.9998 29.4185 28.9998 29.75C28.9998 30.0815 28.8681 30.3994 28.6337 30.6337C28.3994 30.8681 28.0815 30.9998 27.75 30.9998C27.4185 30.9998 27.1006 30.8681 26.8663 30.6337L24 27.7675L21.1337 30.6337C21.0179 30.7502 20.8802 30.8427 20.7286 30.9057C20.5769 30.9688 20.4143 31.0013 20.25 31.0013C20.0857 31.0013 19.9231 30.9688 19.7714 30.9057C19.6198 30.8427 19.4821 30.7502 19.3663 30.6337C19.2501 30.5178 19.1579 30.38 19.095 30.2284C19.0321 30.0767 18.9997 29.9142 18.9997 29.75C18.9997 29.5858 19.0321 29.4233 19.095 29.2716C19.1579 29.12 19.2501 28.9822 19.3663 28.8663L22.2325 26L19.3663 23.1337C19.1319 22.8994 19.0002 22.5815 19.0002 22.25C19.0002 21.9185 19.1319 21.6006 19.3663 21.3663C19.6006 21.1319 19.9185 21.0002 20.25 21.0002C20.5815 21.0002 20.8994 21.1319 21.1337 21.3663L24 24.2325L26.8663 21.3663C27.1006 21.1319 27.4185 21.0002 27.75 21.0002C28.0815 21.0002 28.3994 21.1319 28.6337 21.3663C28.8681 21.6006 28.9998 21.9185 28.9998 22.25C28.9998 22.5815 28.8681 22.8994 28.6337 23.1337L25.7675 26L28.6337 28.8663Z" fill="#01305D"/>
</svg>
