<svg width="29" height="29" viewBox="0 0 29 29" fill="none" xmlns="http://www.w3.org/2000/svg">
<path fill="#01305D" d="M4.83325 24.1663V8.3553L7.75138 4.83301H21.2243L24.1666 8.40242V13.6659C24.0006 13.6176 23.8246 13.583 23.6385 13.562C23.4533 13.5411 23.2728 13.5306 23.0972 13.5306C22.1386 13.5306 21.2323 13.7147 20.3785 14.0828C19.5238 14.4509 18.7726 14.9741 18.1249 15.6524V9.43434H10.8749V17.6365L14.4999 15.824L16.9722 17.0493C16.6564 17.5809 16.4095 18.1505 16.2315 18.7578C16.0534 19.366 15.9644 19.9968 15.9644 20.6501C15.9644 21.2784 16.0478 21.8902 16.2145 22.4855C16.3813 23.0809 16.6278 23.6411 16.954 24.1663H4.83325ZM22.4701 24.8865V21.2615H18.8451V20.0532H22.4701V16.4282H23.6784V20.0532H27.3034V21.2615H23.6784V24.8865H22.4701ZM6.50196 8.22601H22.4749L20.6346 6.04134H8.34225L6.50196 8.22601Z" fill="#6B6B6B"/>
</svg>
