<svg width="48" height="49" viewBox="0 0 48 49" fill="none" xmlns="http://www.w3.org/2000/svg">
<circle cx="35.5" cy="36.5" r="12.5" fill="#CEEEFD"/>
<path d="M6.25 8.125C7.28553 8.125 8.125 7.28553 8.125 6.25C8.125 5.21447 7.28553 4.375 6.25 4.375C5.21447 4.375 4.375 5.21447 4.375 6.25C4.375 7.28553 5.21447 8.125 6.25 8.125Z" fill="#72BAF3" fill-opacity="0.5" stroke="#72BAF3" stroke-width="1.25" stroke-linecap="round"/>
<path d="M15 8.125C16.0355 8.125 16.875 7.28553 16.875 6.25C16.875 5.21447 16.0355 4.375 15 4.375C13.9645 4.375 13.125 5.21447 13.125 6.25C13.125 7.28553 13.9645 8.125 15 8.125Z" fill="#72BAF3" fill-opacity="0.5" stroke="#72BAF3" stroke-width="1.25" stroke-linecap="round"/>
<path d="M23.75 8.125C24.7855 8.125 25.625 7.28553 25.625 6.25C25.625 5.21447 24.7855 4.375 23.75 4.375C22.7145 4.375 21.875 5.21447 21.875 6.25C21.875 7.28553 22.7145 8.125 23.75 8.125Z" fill="#72BAF3" fill-opacity="0.5" stroke="#72BAF3" stroke-width="1.25" stroke-linecap="round"/>
<path d="M6.25 16.875C7.28553 16.875 8.125 16.0355 8.125 15C8.125 13.9645 7.28553 13.125 6.25 13.125C5.21447 13.125 4.375 13.9645 4.375 15C4.375 16.0355 5.21447 16.875 6.25 16.875Z" fill="#72BAF3" fill-opacity="0.5" stroke="#72BAF3" stroke-width="1.25" stroke-linecap="round"/>
<path d="M15 16.875C16.0355 16.875 16.875 16.0355 16.875 15C16.875 13.9645 16.0355 13.125 15 13.125C13.9645 13.125 13.125 13.9645 13.125 15C13.125 16.0355 13.9645 16.875 15 16.875Z" fill="#72BAF3" fill-opacity="0.5" stroke="#72BAF3" stroke-width="1.25" stroke-linecap="round"/>
<path d="M23.75 16.875C24.7855 16.875 25.625 16.0355 25.625 15C25.625 13.9645 24.7855 13.125 23.75 13.125C22.7145 13.125 21.875 13.9645 21.875 15C21.875 16.0355 22.7145 16.875 23.75 16.875Z" fill="#72BAF3" fill-opacity="0.5" stroke="#72BAF3" stroke-width="1.25" stroke-linecap="round"/>
<path d="M6.25 25.625C7.28553 25.625 8.125 24.7855 8.125 23.75C8.125 22.7145 7.28553 21.875 6.25 21.875C5.21447 21.875 4.375 22.7145 4.375 23.75C4.375 24.7855 5.21447 25.625 6.25 25.625Z" fill="#72BAF3" fill-opacity="0.5" stroke="#72BAF3" stroke-width="1.25" stroke-linecap="round"/>
<path d="M15 25.625C16.0355 25.625 16.875 24.7855 16.875 23.75C16.875 22.7145 16.0355 21.875 15 21.875C13.9645 21.875 13.125 22.7145 13.125 23.75C13.125 24.7855 13.9645 25.625 15 25.625Z" fill="#72BAF3" fill-opacity="0.5" stroke="#72BAF3" stroke-width="1.25" stroke-linecap="round"/>
<path d="M23.75 25.625C24.7855 25.625 25.625 24.7855 25.625 23.75C25.625 22.7145 24.7855 21.875 23.75 21.875C22.7145 21.875 21.875 22.7145 21.875 23.75C21.875 24.7855 22.7145 25.625 23.75 25.625Z" fill="#72BAF3" fill-opacity="0.5" stroke="#72BAF3" stroke-width="1.25" stroke-linecap="round"/>
<path d="M35 13.5H15C13.75 13.5 12.5 14.625 12.5 16V19.7625C12.5 20.6625 13.0375 21.4375 13.75 21.875V36C13.75 37.375 15.125 38.5 16.25 38.5H33.75C34.875 38.5 36.25 37.375 36.25 36V21.875C36.9625 21.4375 37.5 20.6625 37.5 19.7625V16C37.5 14.625 36.25 13.5 35 13.5ZM33.75 36H16.25V22.25H33.75V36ZM35 19.75H15V16H35V19.75Z" fill="#01305D"/>
<path d="M21.25 26H28.75V28.5H21.25V26Z" fill="#01305D"/>
</svg>
