<svg width="48" height="49" viewBox="0 0 48 49" fill="none" xmlns="http://www.w3.org/2000/svg">
<circle cx="35.5" cy="36.5" r="12.5" fill="#CEEEFD"/>
<path d="M6.25 8.125C7.28553 8.125 8.125 7.28553 8.125 6.25C8.125 5.21447 7.28553 4.375 6.25 4.375C5.21447 4.375 4.375 5.21447 4.375 6.25C4.375 7.28553 5.21447 8.125 6.25 8.125Z" fill="#72BAF3" fill-opacity="0.5" stroke="#72BAF3" stroke-width="1.25" stroke-linecap="round"/>
<path d="M15 8.125C16.0355 8.125 16.875 7.28553 16.875 6.25C16.875 5.21447 16.0355 4.375 15 4.375C13.9645 4.375 13.125 5.21447 13.125 6.25C13.125 7.28553 13.9645 8.125 15 8.125Z" fill="#72BAF3" fill-opacity="0.5" stroke="#72BAF3" stroke-width="1.25" stroke-linecap="round"/>
<path d="M23.75 8.125C24.7855 8.125 25.625 7.28553 25.625 6.25C25.625 5.21447 24.7855 4.375 23.75 4.375C22.7145 4.375 21.875 5.21447 21.875 6.25C21.875 7.28553 22.7145 8.125 23.75 8.125Z" fill="#72BAF3" fill-opacity="0.5" stroke="#72BAF3" stroke-width="1.25" stroke-linecap="round"/>
<path d="M6.25 16.875C7.28553 16.875 8.125 16.0355 8.125 15C8.125 13.9645 7.28553 13.125 6.25 13.125C5.21447 13.125 4.375 13.9645 4.375 15C4.375 16.0355 5.21447 16.875 6.25 16.875Z" fill="#72BAF3" fill-opacity="0.5" stroke="#72BAF3" stroke-width="1.25" stroke-linecap="round"/>
<path d="M15 16.875C16.0355 16.875 16.875 16.0355 16.875 15C16.875 13.9645 16.0355 13.125 15 13.125C13.9645 13.125 13.125 13.9645 13.125 15C13.125 16.0355 13.9645 16.875 15 16.875Z" fill="#72BAF3" fill-opacity="0.5" stroke="#72BAF3" stroke-width="1.25" stroke-linecap="round"/>
<path d="M23.75 16.875C24.7855 16.875 25.625 16.0355 25.625 15C25.625 13.9645 24.7855 13.125 23.75 13.125C22.7145 13.125 21.875 13.9645 21.875 15C21.875 16.0355 22.7145 16.875 23.75 16.875Z" fill="#72BAF3" fill-opacity="0.5" stroke="#72BAF3" stroke-width="1.25" stroke-linecap="round"/>
<path d="M6.25 25.625C7.28553 25.625 8.125 24.7855 8.125 23.75C8.125 22.7145 7.28553 21.875 6.25 21.875C5.21447 21.875 4.375 22.7145 4.375 23.75C4.375 24.7855 5.21447 25.625 6.25 25.625Z" fill="#72BAF3" fill-opacity="0.5" stroke="#72BAF3" stroke-width="1.25" stroke-linecap="round"/>
<path d="M15 25.625C16.0355 25.625 16.875 24.7855 16.875 23.75C16.875 22.7145 16.0355 21.875 15 21.875C13.9645 21.875 13.125 22.7145 13.125 23.75C13.125 24.7855 13.9645 25.625 15 25.625Z" fill="#72BAF3" fill-opacity="0.5" stroke="#72BAF3" stroke-width="1.25" stroke-linecap="round"/>
<path d="M23.75 25.625C24.7855 25.625 25.625 24.7855 25.625 23.75C25.625 22.7145 24.7855 21.875 23.75 21.875C22.7145 21.875 21.875 22.7145 21.875 23.75C21.875 24.7855 22.7145 25.625 23.75 25.625Z" fill="#72BAF3" fill-opacity="0.5" stroke="#72BAF3" stroke-width="1.25" stroke-linecap="round"/>
<path fill-rule="evenodd" clip-rule="evenodd" d="M11.5 24C11.5 17.0963 17.0963 11.5 24 11.5C30.9037 11.5 36.5 17.0963 36.5 24C36.5 30.9037 30.9037 36.5 24 36.5C17.0963 36.5 11.5 30.9037 11.5 24ZM24 14C21.3478 14 18.8043 15.0536 16.9289 16.9289C15.0536 18.8043 14 21.3478 14 24C14 26.6522 15.0536 29.1957 16.9289 31.0711C18.8043 32.9464 21.3478 34 24 34C26.6522 34 29.1957 32.9464 31.0711 31.0711C32.9464 29.1957 34 26.6522 34 24C34 21.3478 32.9464 18.8043 31.0711 16.9289C29.1957 15.0536 26.6522 14 24 14Z" fill="#01305D"/>
<path fill-rule="evenodd" clip-rule="evenodd" d="M25.25 17.75C25.25 17.4185 25.1183 17.1005 24.8839 16.8661C24.6495 16.6317 24.3315 16.5 24 16.5C23.6685 16.5 23.3505 16.6317 23.1161 16.8661C22.8817 17.1005 22.75 17.4185 22.75 17.75V22.75H17.75C17.4185 22.75 17.1005 22.8817 16.8661 23.1161C16.6317 23.3505 16.5 23.6685 16.5 24C16.5 24.3315 16.6317 24.6495 16.8661 24.8839C17.1005 25.1183 17.4185 25.25 17.75 25.25H22.75V30.25C22.75 30.5815 22.8817 30.8995 23.1161 31.1339C23.3505 31.3683 23.6685 31.5 24 31.5C24.3315 31.5 24.6495 31.3683 24.8839 31.1339C25.1183 30.8995 25.25 30.5815 25.25 30.25V25.25H30.25C30.5815 25.25 30.8995 25.1183 31.1339 24.8839C31.3683 24.6495 31.5 24.3315 31.5 24C31.5 23.6685 31.3683 23.3505 31.1339 23.1161C30.8995 22.8817 30.5815 22.75 30.25 22.75H25.25V17.75Z" fill="#01305D"/>
</svg>
