<svg width="80" height="80" viewBox="0 0 80 80" fill="none" xmlns="http://www.w3.org/2000/svg">
<path d="M77.8955 12.958L40.9727 0.164158C40.3411 -0.0547193 39.6582 -0.0547193 39.0266 0.164158L2.10383 12.958C1.49116 13.1703 0.958289 13.5776 0.580701 14.1222C0.203112 14.6669 -4.78545e-05 15.3212 8.45515e-09 15.9925V47.9771C8.45516e-09 48.8254 0.324172 49.6389 0.901202 50.2388C1.47823 50.8386 2.26085 51.1756 3.0769 51.1756C3.89294 51.1756 4.67556 50.8386 5.25259 50.2388C5.82962 49.6389 6.15379 48.8254 6.15379 47.9771V20.4304L19.0729 24.9042C15.6405 30.6687 14.549 37.6135 16.0381 44.2137C17.5272 50.814 21.4752 56.5302 27.0152 60.1072C20.0921 62.9299 14.1076 68.0354 9.73069 75.0161C9.50306 75.3677 9.34494 75.763 9.26554 76.1787C9.18614 76.5945 9.18703 77.0225 9.26816 77.4379C9.34929 77.8533 9.50904 78.2478 9.73813 78.5985C9.96722 78.9491 10.2611 79.249 10.6026 79.4805C10.9442 79.7121 11.3266 79.8708 11.7276 79.9474C12.1287 80.0239 12.5404 80.0169 12.9388 79.9266C13.3372 79.8364 13.7144 79.6647 14.0484 79.4215C14.3824 79.1784 14.6666 78.8687 14.8845 78.5104C20.6806 69.2668 29.8344 63.9694 39.9997 63.9694C50.165 63.9694 59.3187 69.2668 65.1148 78.5104C65.5661 79.2076 66.2632 79.6922 67.0555 79.8594C67.8478 80.0266 68.6715 79.863 69.3486 79.4039C70.0257 78.9448 70.5018 78.2271 70.674 77.406C70.8462 76.5849 70.7005 75.7264 70.2686 75.0161C65.8917 68.0354 59.8841 62.9299 52.9842 60.1072C58.5188 56.5304 62.4631 50.8179 63.9519 44.2224C65.4408 37.627 64.3528 30.687 60.9264 24.9242L77.8955 19.047C78.5083 18.8349 79.0413 18.4276 79.419 17.883C79.7967 17.3383 80 16.6839 80 16.0125C80 15.3411 79.7967 14.6867 79.419 14.1421C79.0413 13.5974 78.5083 13.1902 77.8955 12.978V12.958ZM58.461 38.3817C58.4619 41.4157 57.7707 44.4066 56.4442 47.1091C55.1177 49.8116 53.1937 52.1487 50.8301 53.9286C48.4664 55.7085 45.7305 56.8804 42.8468 57.3483C39.963 57.8162 37.0137 57.5667 34.2407 56.6203C31.4677 55.6738 28.95 54.0574 26.8943 51.9037C24.8387 49.75 23.3035 47.1203 22.4148 44.2304C21.5262 41.3405 21.3093 38.2727 21.7821 35.2788C22.2548 32.2849 23.4037 29.4502 25.1344 27.0072L39.0266 31.8049C39.6582 32.0238 40.3411 32.0238 40.9727 31.8049L54.8649 27.0072C57.2025 30.3016 58.4629 34.2881 58.461 38.3817ZM39.9997 25.416L12.8076 15.9925L39.9997 6.56907L67.1917 15.9925L39.9997 25.416Z" fill="#A4A4A4"/>
</svg>
