<svg width="100" height="100" viewBox="0 0 100 100" fill="none" xmlns="http://www.w3.org/2000/svg">
<g clip-path="url(#clip0_369_2488)">
<path d="M32.9444 45.9723C30.8896 45.9793 28.8712 46.515 27.0833 47.5279C29.6004 41.0126 33.7752 35.2676 39.1944 30.8612C39.5045 30.6059 39.7612 30.292 39.95 29.9374C40.1387 29.5828 40.2558 29.1946 40.2945 28.7947C40.3332 28.3949 40.2927 27.9914 40.1755 27.6072C40.0582 27.2231 39.8665 26.8657 39.6111 26.5557C39.3558 26.2456 39.0418 25.9889 38.6873 25.8001C38.3327 25.6114 37.9444 25.4943 37.5446 25.4556C37.1448 25.4169 36.7413 25.4574 36.3571 25.5746C35.9729 25.6919 35.6156 25.8837 35.3056 26.139C24.1944 35.1668 19.25 47.6668 19.25 55.4168C19.2691 58.157 20.0858 60.8324 21.6001 63.1163C23.1145 65.4002 25.2611 67.1937 27.7778 68.2779C29.4066 69.0669 31.1902 69.4844 33 69.5001C34.5929 69.5775 36.185 69.3307 37.6797 68.7744C39.1744 68.2182 40.5405 67.3641 41.6953 66.2641C42.85 65.1641 43.7694 63.8411 44.3975 62.3752C45.0257 60.9093 45.3496 59.3311 45.3496 57.7362C45.3496 56.1414 45.0257 54.5632 44.3975 53.0973C43.7694 51.6314 42.85 50.3083 41.6953 49.2083C40.5405 48.1083 39.1744 47.2543 37.6797 46.6981C36.185 46.1418 34.5929 45.8949 33 45.9723H32.9444Z" fill="#074B81"/>
<path d="M63.8888 45.9725C61.8336 45.977 59.8145 46.5129 58.0277 47.5281C60.5438 41.0197 64.7075 35.2765 70.111 30.8614C70.4492 30.6177 70.734 30.3072 70.9477 29.9493C71.1615 29.5913 71.2997 29.1934 71.3539 28.7801C71.4081 28.3667 71.3772 27.9466 71.263 27.5456C71.1488 27.1447 70.9537 26.7713 70.6898 26.4486C70.4259 26.1258 70.0987 25.8605 69.7284 25.6689C69.3582 25.4773 68.9526 25.3635 68.5367 25.3345C68.1208 25.3056 67.7033 25.362 67.3101 25.5004C66.9168 25.6388 66.556 25.8562 66.2499 26.1392C55.1388 35.167 50.1943 47.667 50.1943 55.417C50.2075 58.1262 51.0003 60.7744 52.478 63.0451C53.9557 65.3159 56.0559 67.1133 58.5277 68.2225C60.1977 69.0347 62.0318 69.4528 63.8888 69.4448C65.4817 69.5222 67.0738 69.2753 68.5685 68.7191C70.0632 68.1628 71.4293 67.3088 72.5841 66.2088C73.7388 65.1088 74.6582 63.7857 75.2863 62.3198C75.9145 60.8539 76.2384 59.2757 76.2384 57.6809C76.2384 56.0861 75.9145 54.5078 75.2863 53.0419C74.6582 51.576 73.7388 50.253 72.5841 49.153C71.4293 48.053 70.0632 47.199 68.5685 46.6427C67.0738 46.0865 65.4817 45.8396 63.8888 45.917V45.9725Z" fill="#074B81"/>
</g>
<defs>
<clipPath id="clip0_369_2488">
<rect width="100" height="100" fill="white"/>
</clipPath>
</defs>
</svg>
