<svg width="100" height="100" viewBox="0 0 100 100" fill="none" xmlns="http://www.w3.org/2000/svg">
<circle cx="50" cy="50" r="50" fill="#C1C1C1"/>
<path d="M50 25C53.3152 25 56.4946 26.317 58.8388 28.6612C61.183 31.0054 62.5 34.1848 62.5 37.5C62.5 40.8152 61.183 43.9946 58.8388 46.3388C56.4946 48.683 53.3152 50 50 50C46.6848 50 43.5054 48.683 41.1612 46.3388C38.817 43.9946 37.5 40.8152 37.5 37.5C37.5 34.1848 38.817 31.0054 41.1612 28.6612C43.5054 26.317 46.6848 25 50 25ZM50 56.25C63.8125 56.25 75 61.8437 75 68.75V75H25V68.75C25 61.8437 36.1875 56.25 50 56.25Z" fill="#999999"/>
</svg>
